<svg version="1.2" baseProfile="tiny" xmlns="http://www.w3.org/2000/svg" width="153.475" height="181.133" viewBox="0 0 153.475 181.133" overflow="visible"><g id="logo"><path d="M28.49 113.093c-.786-.002-.86.862-.86.862V151.4c.174 1.033.86.865.86.865h12.88v-39.172s-12.092.003-12.88 0z" fill="none"/><path fill="#fff" d="M42.126 77.73s2.766 7.948 42.953 7.946c36.23-.73 38.577-7.945 38.577-7.945s.335-8.043-11.21-10.825c1.16-4.447.742-13.09-13.434-16.552 0 0-14.29-3.39-22.91 7.845-6.12-6.465-27.256-3.86-23.46 8.873 0 0-9.762 2.105-10.517 10.66zM124.224 86.402c-.02.017-7.336 6.25-40.29 6.25-33.005 0-42.563-6.366-42.563-6.366l.102 13.416-14.283.138c-11.617 1.244-12.983 12.51-12.993 12.594v40.608c2.315 12.077 12.784 12.49 12.784 12.49l14.39.092-.125 6.99s1.692 3.34 8.224 4.894c9.89 2.28 19.3 3.323 27.818 3.624h10.864c14.72-.525 25.375-3.03 28.884-4.04 6.117-1.764 7.178-4.76 7.188-4.788V86.402zM41.37 152.266H28.49s-.686.168-.86-.865v-37.444s.074-.864.86-.862c.788.002 12.88 0 12.88 0v39.172z"/></g><g fill="#fff" id="denkbraeu_1_"><path d="M18.077 26.875v1.24h-5.2l-.52-2.28c-1.36 1.52-3.16 2.6-5.358 2.6-3.48 0-7-2.2-7-8.638 0-6.08 3.88-10 8.56-10 1.52 0 2.678.16 3.638.44V2.44h-3.36V1.12L13.158 0h2.08v25.716l2.84 1.16zm-5.88-13.957c-.96-.68-2.12-1.16-3.598-1.16-3.36 0-5.48 2.16-5.48 6.96 0 4.878 2 7.238 5.04 7.238 1.08 0 2.92-.72 4.04-1.24V12.918zM29.918 26.116c1.28 0 3.24-.52 4.92-1.36l.44.8c-.96 1.28-3.64 2.88-6.56 2.88-5.56 0-8.398-3.4-8.398-9 0-5.48 3.32-9.678 8.238-9.678 4.88 0 6.76 3.36 6.88 8.72h-12v.52c0 4.838 2.84 7.118 6.48 7.118zm-6.32-9.52h8.32c-.24-2.798-1.28-5.198-4.04-5.198-2 0-3.76 1.52-4.28 5.2zM38 26.875l3.2-.84V12.478h-3.4v-1.28l4.56-1.44h1.08l.76 2.64c1.6-1.32 3.8-2.64 6.64-2.64 3.598 0 5.318 2.52 5.318 6.48v9.797l3.2.8v1.28H49.92v-1.24l3.2-.84v-9.6c0-2.798-1.2-4.158-3.96-4.158-1.76 0-3.798.8-4.958 1.56v12.198l3.24.8v1.28H38v-1.24zM60.84 26.875l3.198-.84V2.44h-3.4V1.12L64.96 0h2.12v26.036l3.24.8v1.28h-9.48v-1.24zm7.358-8.798l5.56-5.68-2.8-1.08v-1.2h7.798v1.24l-2.24 1.08-5.398 5.08 5.64 8.12 3.158 1.24v1.24h-5.52l-6.198-9.4v-.64zM83.358 2.44h-3.36V1.12L84.32 0h2.08v11.518c1.52-.96 3.64-1.76 5.358-1.76 4.64 0 6.84 3.08 6.84 8.918 0 5.76-4.28 9.758-9.36 9.758-2.438 0-4.158-.48-5.878-1.76V2.44zm3.04 10.598v12.118c1.2.68 2.72 1.12 3.72 1.12 3.96 0 5.078-3.8 5.078-6.918 0-4.2-1.68-7.24-4.76-7.24-1.518 0-2.878.36-4.038.92zM101.238 26.875l3.16-.84V12.478h-3.4v-1.28l4.56-1.44h1.08l.56 1.96c1.6-1.2 3.64-1.96 5.64-1.96.64 0 1.2.04 1.84.2l-.88 3.32h-.8l-3.12-.88h-2.48v13.637l3.28.8v1.28h-9.438v-1.24zM117.198 16.117v-4.84c1.44-.64 4-1.52 6.2-1.52 3.278 0 6.038 1.36 6.038 5.32v10.638l2.84 1.16v1.24h-5.2l-.56-2.28c-1.04 1.08-3.16 2.6-5.76 2.6-2.76 0-4.68-1.68-4.68-4.64 0-3.12 3.16-5.718 8.36-5.718h2v-2.48c0-2.72-1.56-4.08-3.56-4.08-.92 0-1.84.36-2.8.92l-1.2 3.68h-1.678zm2.6-14.597c1.12 0 1.96.84 1.96 1.96 0 1.08-.84 1.96-1.96 1.96-1.16 0-1.96-.88-1.96-1.96 0-1.12.8-1.96 1.96-1.96zm6.64 18.677h-2.6c-3.16 0-4.84.88-4.84 2.92 0 1.72 1 2.718 2.92 2.718 1.88 0 3.32-.64 4.478-1.16l.04-4.478zm.48-18.677c1.118 0 1.958.84 1.958 1.96 0 1.08-.84 1.96-1.96 1.96s-1.96-.88-1.96-1.96c0-1.12.84-1.96 1.96-1.96zM147.836 25.875c-2.56 2-4.2 2.56-6.48 2.56-3.52 0-4.92-2.52-4.92-6.16V12.48h-3.398v-1.28l5.16-1.44h1.28v10.958c0 3.68 1.118 5.12 3.398 5.16 1.64 0 3.24-.6 4.72-1.4V12.478h-3.36v-1.28l5.12-1.44h1.28v15.958l2.838 1.16v1.24h-5.2l-.438-2.24z"/></g></svg>